G04*
G04 #@! TF.GenerationSoftware,Altium Limited,Altium Designer,20.0.13 (296)*
G04*
G04 Layer_Color=65535*
%FSLAX25Y25*%
%MOIN*%
G70*
G01*
G75*
%ADD10C,0.00787*%
%ADD11C,0.01000*%
%ADD12R,0.06299X0.01575*%
D10*
X45587Y35276D02*
X51587D01*
Y45276D01*
X45587D02*
X51587D01*
X45587Y50276D02*
X68587D01*
X45587Y30776D02*
Y50276D01*
Y30776D02*
X68587D01*
Y50276D01*
X19291Y46063D02*
X27953D01*
X19291D02*
Y60236D01*
X27953D01*
Y46063D02*
Y60236D01*
X20472Y20079D02*
Y33858D01*
X26772D01*
Y20079D02*
Y33858D01*
X20472Y20079D02*
X26772D01*
X6693Y6693D02*
Y9645D01*
X8169D01*
X8661Y9153D01*
Y8169D01*
X8169Y7677D01*
X6693D01*
X7677D02*
X8661Y6693D01*
X9645Y9645D02*
Y6693D01*
Y7677D01*
X11613Y9645D01*
X10137Y8169D01*
X11613Y6693D01*
X12596Y7185D02*
X13089Y6693D01*
X14072D01*
X14564Y7185D01*
Y9153D01*
X14072Y9645D01*
X13089D01*
X12596Y9153D01*
Y8661D01*
X13089Y8169D01*
X14564D01*
X15548Y7185D02*
X16040Y6693D01*
X17024D01*
X17516Y7185D01*
Y9153D01*
X17024Y9645D01*
X16040D01*
X15548Y9153D01*
Y8661D01*
X16040Y8169D01*
X17516D01*
X23420Y9153D02*
X22928Y9645D01*
X21944D01*
X21452Y9153D01*
Y7185D01*
X21944Y6693D01*
X22928D01*
X23420Y7185D01*
Y8169D01*
X22436D01*
X24404Y6693D02*
Y9645D01*
X25880D01*
X26372Y9153D01*
Y8169D01*
X25880Y7677D01*
X24404D01*
X25388D02*
X26372Y6693D01*
X28831Y9645D02*
X27848D01*
X27356Y9153D01*
Y7185D01*
X27848Y6693D01*
X28831D01*
X29324Y7185D01*
Y9153D01*
X28831Y9645D01*
X30307D02*
Y7185D01*
X30799Y6693D01*
X31783D01*
X32275Y7185D01*
Y9645D01*
X33259Y6693D02*
Y9645D01*
X34735D01*
X35227Y9153D01*
Y8169D01*
X34735Y7677D01*
X33259D01*
X40639Y9645D02*
X39655D01*
X39163Y9153D01*
Y7185D01*
X39655Y6693D01*
X40639D01*
X41131Y7185D01*
Y9153D01*
X40639Y9645D01*
X44082D02*
X42115D01*
Y8169D01*
X43099D01*
X42115D01*
Y6693D01*
X49986Y9153D02*
X49494Y9645D01*
X48510D01*
X48018Y9153D01*
Y7185D01*
X48510Y6693D01*
X49494D01*
X49986Y7185D01*
X52446Y9645D02*
X51462D01*
X50970Y9153D01*
Y7185D01*
X51462Y6693D01*
X52446D01*
X52938Y7185D01*
Y9153D01*
X52446Y9645D01*
X53922Y6693D02*
Y9645D01*
X54906Y8661D01*
X55890Y9645D01*
Y6693D01*
X56874D02*
Y9645D01*
X58350D01*
X58842Y9153D01*
Y8169D01*
X58350Y7677D01*
X56874D01*
X59825Y6693D02*
Y8661D01*
X60809Y9645D01*
X61793Y8661D01*
Y6693D01*
Y8169D01*
X59825D01*
X62777Y6693D02*
Y9645D01*
X64745Y6693D01*
Y9645D01*
X65729D02*
X66713D01*
X66221D01*
Y6693D01*
X65729D01*
X66713D01*
X70157Y9645D02*
X68189D01*
Y6693D01*
X70157D01*
X68189Y8169D02*
X69173D01*
X73109Y9153D02*
X72617Y9645D01*
X71633D01*
X71141Y9153D01*
Y8661D01*
X71633Y8169D01*
X72617D01*
X73109Y7677D01*
Y7185D01*
X72617Y6693D01*
X71633D01*
X71141Y7185D01*
X40157Y34252D02*
X43306D01*
X40157Y45669D02*
X43306D01*
X41732Y47243D02*
Y44094D01*
D11*
X71587Y44276D02*
X73586D01*
X72586D01*
Y50274D01*
X71587Y49274D01*
X7812Y50151D02*
Y56149D01*
X10811D01*
X11811Y55149D01*
Y53150D01*
X10811Y52150D01*
X7812D01*
X9812D02*
X11811Y50151D01*
X13810D02*
X15810D01*
X14810D01*
Y56149D01*
X13810Y55149D01*
X50235Y60224D02*
X48236D01*
X49236D01*
Y55225D01*
X48236Y54226D01*
X47236D01*
X46237Y55225D01*
X52235Y54226D02*
X54234D01*
X53234D01*
Y60224D01*
X52235Y59224D01*
X7812Y30558D02*
Y24560D01*
X10811D01*
X11811Y25560D01*
Y29558D01*
X10811Y30558D01*
X7812D01*
X13810Y24560D02*
X15810D01*
X14810D01*
Y30558D01*
X13810Y29558D01*
D12*
X23622Y20866D02*
D03*
M02*
