G04*
G04 #@! TF.GenerationSoftware,Altium Limited,Altium Designer,20.0.13 (296)*
G04*
G04 Layer_Physical_Order=2*
G04 Layer_Color=16711680*
%FSLAX25Y25*%
%MOIN*%
G70*
G01*
G75*
%ADD13R,0.05118X0.02756*%
%ADD14R,0.03150X0.03150*%
%ADD19C,0.01968*%
%ADD20O,0.07874X0.06299*%
%ADD21R,0.07874X0.06299*%
%ADD22C,0.02362*%
G36*
X61024Y51547D02*
X59082Y49606D01*
X51968D01*
Y40945D01*
X61024D01*
Y38719D01*
X60524Y38473D01*
X59967Y38900D01*
X58957Y39318D01*
X57874Y39461D01*
X57587D01*
Y35276D01*
Y31090D01*
X57874D01*
X58814Y31214D01*
X61024Y29004D01*
Y3937D01*
X3937D01*
Y74803D01*
X61024D01*
Y51547D01*
D02*
G37*
%LPC*%
G36*
X56587Y39461D02*
X56299D01*
X55216Y39318D01*
X54207Y38900D01*
X53340Y38235D01*
X52675Y37368D01*
X52256Y36359D01*
X52180Y35776D01*
X56587D01*
Y39461D01*
D02*
G37*
G36*
Y34776D02*
X52180D01*
X52256Y34192D01*
X52675Y33183D01*
X53340Y32316D01*
X54207Y31651D01*
X55216Y31233D01*
X56299Y31090D01*
X56587D01*
Y34776D01*
D02*
G37*
G36*
X35933Y25746D02*
Y24122D01*
X37557D01*
X37488Y24473D01*
X37006Y25194D01*
X36284Y25677D01*
X35933Y25746D01*
D02*
G37*
G36*
X34933D02*
X34582Y25677D01*
X33861Y25194D01*
X33378Y24473D01*
X33309Y24122D01*
X34933D01*
Y25746D01*
D02*
G37*
G36*
X37557Y23122D02*
X35933D01*
Y21498D01*
X36284Y21567D01*
X37006Y22050D01*
X37488Y22771D01*
X37557Y23122D01*
D02*
G37*
G36*
X34933D02*
X33309D01*
X33378Y22771D01*
X33861Y22050D01*
X34582Y21567D01*
X34933Y21498D01*
Y23122D01*
D02*
G37*
%LPD*%
D13*
X68898Y47343D02*
D03*
Y55020D02*
D03*
D14*
Y30217D02*
D03*
Y36713D02*
D03*
D19*
X57087Y45276D02*
X57874D01*
X67224Y54626D01*
X68504D01*
X68307Y29626D02*
X68898Y30217D01*
X67027Y29626D02*
X68307D01*
X66929Y29528D02*
X67027Y29626D01*
X57087Y35276D02*
X57874D01*
X63622Y29528D01*
X66929D01*
X68898Y36713D02*
Y47343D01*
X70079D01*
X70473Y46949D01*
X68504Y54626D02*
X68898Y55020D01*
D20*
X57087Y35276D02*
D03*
D21*
Y45276D02*
D03*
D22*
X35433Y23622D02*
D03*
M02*
